<?xml version="1.0" standalone="no"?>
<!DOCTYPE svg PUBLIC "-//W3C//DTD SVG 20010904//EN"
 "http://www.w3.org/TR/2001/REC-SVG-20010904/DTD/svg10.dtd">
<svg version="1.0" xmlns="http://www.w3.org/2000/svg"
 width="300.000000pt" height="300.000000pt" viewBox="0 0 300.000000 300.000000"
 preserveAspectRatio="xMidYMid meet">
<metadata>
Created by potrace 1.11, written by Peter Selinger 2001-2013
</metadata>
<g transform="translate(0.000000,300.000000) scale(0.100000,-0.100000)"
fill="#000000" stroke="none">
<path d="M803 2142 c-17 -9 -51 -35 -75 -57 -24 -22 -76 -69 -117 -105 -75
-65 -101 -106 -101 -157 0 -26 27 -81 53 -108 14 -14 154 -168 178 -196 9 -11
52 -58 95 -106 44 -47 86 -94 95 -105 16 -17 147 -163 196 -216 13 -14 58 -63
100 -111 172 -191 206 -222 251 -231 54 -10 105 13 156 71 22 24 64 71 95 105
31 33 76 83 100 110 25 27 68 74 95 104 117 127 242 264 258 282 9 11 54 60
100 110 46 50 88 96 93 102 6 6 31 34 57 62 87 96 83 163 -14 257 -118 113
-205 186 -232 197 -18 6 -251 10 -689 10 -605 -1 -665 -2 -694 -18z m1379 -86
c13 -11 69 -62 126 -114 80 -74 102 -100 102 -120 0 -27 -38 -74 -186 -230
l-60 -65 -36 12 c-57 19 -177 21 -254 6 -93 -20 -196 -73 -270 -139 l-61 -55
-79 26 c-103 35 -264 38 -364 9 -36 -11 -71 -24 -79 -30 -10 -8 -22 -1 -49 29
-77 86 -131 145 -211 233 -135 149 -141 156 -157 179 -9 13 -13 31 -9 42 5 18
137 144 221 212 l32 26 655 -1 c630 -1 657 -2 679 -20z"/>
</g>
</svg>
