<?xml version="1.0" standalone="no"?>
<!DOCTYPE svg PUBLIC "-//W3C//DTD SVG 20010904//EN"
 "http://www.w3.org/TR/2001/REC-SVG-20010904/DTD/svg10.dtd">
<svg version="1.0" xmlns="http://www.w3.org/2000/svg"
 width="1024.000000pt" height="1024.000000pt" viewBox="0 0 1024.000000 1024.000000"
 preserveAspectRatio="xMidYMid meet">
<metadata>
Created by potrace 1.11, written by Peter Selinger 2001-2013
</metadata>
<g transform="translate(0.000000,1024.000000) scale(0.100000,-0.100000)"
fill="#000000" stroke="none">
<path d="M4250 7712 l-925 -3 -92 -117 c-51 -64 -103 -129 -115 -144 -13 -15
-35 -42 -50 -60 -88 -109 -174 -215 -183 -224 -5 -6 -23 -28 -40 -49 -16 -20
-56 -69 -88 -109 -32 -39 -64 -78 -70 -86 -21 -27 -101 -124 -119 -145 -9 -11
-51 -63 -93 -115 -42 -52 -84 -104 -94 -115 -9 -12 -35 -43 -57 -70 -21 -28
-47 -59 -56 -70 -17 -20 -55 -67 -116 -143 -19 -22 -41 -50 -50 -61 -10 -11
-29 -35 -44 -53 -14 -18 -73 -90 -130 -159 -57 -70 -186 -229 -288 -354 -102
-126 -202 -249 -223 -274 -21 -25 -49 -59 -62 -76 -13 -16 -47 -58 -74 -91
-28 -34 -51 -68 -51 -75 0 -8 40 -62 88 -120 48 -59 134 -164 192 -235 57 -71
107 -131 110 -134 3 -3 52 -63 110 -135 58 -71 112 -139 122 -150 27 -33 131
-160 160 -196 16 -19 39 -47 52 -64 41 -51 186 -229 204 -250 10 -11 87 -105
172 -210 85 -104 160 -197 167 -205 43 -53 316 -388 326 -400 34 -44 104 -128
122 -147 l20 -22 108 157 c60 86 271 394 470 684 379 552 377 549 418 607 22
31 150 218 253 370 17 25 33 48 36 51 3 3 10 12 15 22 6 9 39 58 75 110 35 51
85 123 110 159 56 82 101 147 250 364 65 94 259 377 433 630 174 253 321 465
326 472 6 7 11 15 11 18 0 3 28 45 63 93 34 48 84 119 110 157 26 39 72 106
103 150 30 44 80 116 110 160 30 44 62 91 72 105 9 14 83 122 164 240 81 118
161 234 179 258 17 23 29 45 26 48 -7 7 -962 10 -2157 6z"/>
<path d="M7125 7328 c-22 -32 -45 -68 -52 -80 -6 -11 -15 -23 -20 -27 -4 -3
-12 -14 -18 -23 -5 -9 -36 -54 -67 -100 -152 -221 -209 -304 -218 -318 -5 -8
-34 -49 -63 -90 -29 -41 -62 -90 -72 -107 -11 -18 -23 -33 -27 -33 -4 0 -8 -4
-8 -9 0 -9 -184 -279 -209 -308 -6 -7 -11 -15 -11 -19 0 -4 -23 -39 -50 -78
-52 -73 -354 -510 -470 -681 -129 -189 -240 -350 -247 -360 -5 -5 -22 -30 -39
-55 -104 -153 -160 -236 -167 -245 -17 -22 -137 -197 -206 -300 -41 -60 -83
-121 -94 -135 -10 -14 -97 -140 -192 -280 -96 -140 -178 -259 -182 -265 -5 -5
-37 -53 -73 -105 -35 -52 -75 -111 -89 -131 -14 -20 -32 -45 -38 -55 -15 -22
-65 -95 -144 -209 -31 -44 -79 -114 -107 -155 -135 -198 -290 -422 -374 -543
-32 -45 -54 -84 -49 -87 5 -3 698 -5 1541 -5 1373 1 1533 2 1544 16 19 27 61
80 71 92 13 15 97 119 108 132 4 6 17 21 28 35 12 14 56 68 98 120 42 52 84
104 93 115 23 27 254 311 287 353 14 18 38 48 53 65 38 46 347 426 388 477 19
25 58 71 85 105 28 33 78 94 110 135 33 41 65 81 72 88 7 7 56 68 110 135 53
67 100 124 103 127 3 3 53 64 110 135 58 72 107 132 110 135 3 3 25 30 50 60
25 30 48 57 53 58 4 2 7 10 7 18 0 8 4 14 8 14 4 0 24 21 44 48 20 26 45 56
55 67 10 11 26 31 35 44 17 24 15 26 -126 201 -79 97 -151 186 -160 196 -8 10
-61 75 -117 144 -56 69 -113 139 -128 156 -14 18 -39 49 -56 70 -16 20 -73 90
-125 154 -52 64 -108 133 -125 154 -16 22 -34 44 -40 50 -22 25 -107 128 -211
256 -60 74 -114 142 -121 150 -20 24 -223 272 -252 307 -14 18 -37 47 -51 65
-14 18 -32 39 -40 48 -8 9 -34 40 -57 70 -23 30 -53 67 -65 81 -13 15 -50 61
-83 102 -33 42 -64 78 -70 80 -5 2 -28 -22 -50 -55z"/>
</g>
</svg>
